{
	"asset":{
		"generator":"Khronos glTF Blender I/O v5.1.20",
		"version":"2.0"
	},
	"scene":0,
	"scenes":[
		{
			"name":"Scene",
			"nodes":[
				0,
				1,
				2,
				3,
				4,
				5,
				6,
				7,
				8
			]
		}
	],
	"nodes":[
		{
			"mesh":0,
			"name":"Plane",
			"scale":[
				5.283177852630615,
				5.283177852630615,
				5.283177852630615
			]
		},
		{
			"mesh":1,
			"name":"Text",
			"rotation":[
				0.7071068286895752,
				0,
				0,
				0.7071068286895752
			],
			"translation":[
				1,
				0,
				0
			]
		},
		{
			"mesh":2,
			"name":"Icosphere",
			"scale":[
				0.20704346895217896,
				0.20704346895217896,
				0.20704346895217896
			]
		},
		{
			"mesh":3,
			"name":"Text.001",
			"rotation":[
				0.5,
				0.5,
				-0.5,
				0.5000000596046448
			],
			"translation":[
				0,
				0,
				-1
			]
		},
		{
			"mesh":4,
			"name":"Cube",
			"rotation":[
				0,
				0.33234477043151855,
				0,
				0.943157970905304
			],
			"scale":[
				0.42681169509887695,
				0.42681169509887695,
				0.42681169509887695
			],
			"translation":[
				-1.9470576047897339,
				0.42681169509887695,
				-0.14344894886016846
			]
		},
		{
			"mesh":5,
			"name":"Cube.001",
			"rotation":[
				0,
				-0.11449865996837616,
				0,
				0.9934234023094177
			],
			"scale":[
				0.42681169509887695,
				0.42681169509887695,
				0.42681169509887695
			],
			"translation":[
				-1.5400347709655762,
				0.42681169509887695,
				2.154849052429199
			]
		},
		{
			"mesh":6,
			"name":"Sphere",
			"translation":[
				0,
				5,
				0
			]
		},
		{
			"mesh":7,
			"name":"Plane.001",
			"scale":[
				-40,
				-41.29048538208008,
				-40
			]
		},
		{
			"mesh":8,
			"name":"Cube.002",
			"rotation":[
				0,
				-0.879023551940918,
				0,
				0.47677844762802124
			],
			"scale":[
				0.42681169509887695,
				0.42681169509887695,
				0.42681169509887695
			],
			"translation":[
				0.09104681015014648,
				0.42681169509887695,
				2.1279988288879395
			]
		}
	],
	"materials":[
		{
			"doubleSided":true,
			"name":"Material.003",
			"pbrMetallicRoughness":{
				"baseColorFactor":[
					0.6418004631996155,
					0.06345327943563461,
					0.7999998927116394,
					1
				],
				"metallicFactor":0,
				"roughnessFactor":0.5
			}
		},
		{
			"doubleSided":true,
			"name":"Material.001",
			"normalTexture":{
				"index":0
			},
			"pbrMetallicRoughness":{
				"baseColorFactor":[
					0.800000011920929,
					0.800000011920929,
					0.800000011920929,
					1
				],
				"metallicFactor":0,
				"roughnessFactor":0.5
			}
		},
		{
			"doubleSided":true,
			"name":"Material.002",
			"pbrMetallicRoughness":{
				"baseColorTexture":{
					"index":1
				},
				"metallicFactor":0,
				"roughnessFactor":0.5
			}
		},
		{
			"doubleSided":true,
			"name":"Material.004",
			"pbrMetallicRoughness":{
				"baseColorFactor":[
					0.800000011920929,
					0.800000011920929,
					0.800000011920929,
					1
				],
				"metallicFactor":0,
				"roughnessFactor":0.5
			}
		},
		{
			"doubleSided":true,
			"name":"Material.005",
			"normalTexture":{
				"index":2
			},
			"pbrMetallicRoughness":{
				"baseColorTexture":{
					"index":3
				},
				"metallicFactor":0,
				"roughnessFactor":0.5
			}
		}
	],
	"meshes":[
		{
			"name":"Plane",
			"primitives":[
				{
					"attributes":{
						"POSITION":0,
						"NORMAL":1,
						"TEXCOORD_0":2
					},
					"indices":3,
					"material":0
				}
			]
		},
		{
			"name":"X-Axis",
			"primitives":[
				{
					"attributes":{
						"POSITION":4,
						"NORMAL":5,
						"TEXCOORD_0":6
					},
					"indices":7
				}
			]
		},
		{
			"name":"Icosphere",
			"primitives":[
				{
					"attributes":{
						"POSITION":8,
						"NORMAL":9,
						"TEXCOORD_0":10
					},
					"indices":11
				}
			]
		},
		{
			"name":"X-Axis.001",
			"primitives":[
				{
					"attributes":{
						"POSITION":12,
						"NORMAL":13,
						"TEXCOORD_0":14
					},
					"indices":15
				}
			]
		},
		{
			"name":"Cube.001",
			"primitives":[
				{
					"attributes":{
						"POSITION":16,
						"NORMAL":17,
						"TEXCOORD_0":18
					},
					"indices":19,
					"material":1
				}
			]
		},
		{
			"name":"Cube.002",
			"primitives":[
				{
					"attributes":{
						"POSITION":20,
						"NORMAL":21,
						"TEXCOORD_0":22
					},
					"indices":19,
					"material":2
				}
			]
		},
		{
			"name":"Sphere",
			"primitives":[
				{
					"attributes":{
						"POSITION":23,
						"NORMAL":24,
						"TEXCOORD_0":25
					},
					"indices":26
				}
			]
		},
		{
			"name":"Plane.001",
			"primitives":[
				{
					"attributes":{
						"POSITION":27,
						"NORMAL":28,
						"TEXCOORD_0":29
					},
					"indices":30,
					"material":3
				}
			]
		},
		{
			"name":"Cube.003",
			"primitives":[
				{
					"attributes":{
						"POSITION":31,
						"NORMAL":32,
						"TEXCOORD_0":33
					},
					"indices":34,
					"material":4
				}
			]
		}
	],
	"textures":[
		{
			"sampler":0,
			"source":0
		},
		{
			"sampler":0,
			"source":0
		},
		{
			"sampler":0,
			"source":1
		},
		{
			"sampler":0,
			"source":2
		}
	],
	"images":[
		{
			"mimeType":"image/jpeg",
			"name":"06b83d7f3ae591bcca4ddf6912f2e8e58685fde1",
			"uri":"06b83d7f3ae591bcca4ddf6912f2e8e58685fde1.jpg"
		},
		{
			"mimeType":"image/jpeg",
			"name":"broken_brick_wall_nor_gl_1k",
			"uri":"broken_brick_wall_nor_gl_1k.jpg"
		},
		{
			"mimeType":"image/jpeg",
			"name":"broken_brick_wall_diff_1k",
			"uri":"broken_brick_wall_diff_1k.jpg"
		}
	],
	"accessors":[
		{
			"bufferView":0,
			"componentType":5126,
			"count":4,
			"max":[
				1,
				0,
				1
			],
			"min":[
				-1,
				0,
				-1
			],
			"type":"VEC3"
		},
		{
			"bufferView":1,
			"componentType":5126,
			"count":4,
			"type":"VEC3"
		},
		{
			"bufferView":2,
			"componentType":5126,
			"count":4,
			"type":"VEC2"
		},
		{
			"bufferView":3,
			"componentType":5123,
			"count":6,
			"type":"SCALAR"
		},
		{
			"bufferView":4,
			"componentType":5126,
			"count":1350,
			"max":[
				2.76200008392334,
				0,
				0.009000000543892384
			],
			"min":[
				0.0020000000949949026,
				-0.10000000149011612,
				-0.6860000491142273
			],
			"type":"VEC3"
		},
		{
			"bufferView":5,
			"componentType":5126,
			"count":1350,
			"type":"VEC3"
		},
		{
			"bufferView":6,
			"componentType":5126,
			"count":1350,
			"type":"VEC2"
		},
		{
			"bufferView":7,
			"componentType":5123,
			"count":2628,
			"type":"SCALAR"
		},
		{
			"bufferView":8,
			"componentType":5126,
			"count":240,
			"max":[
				0.9510578513145447,
				1.343279242515564,
				0.9999999403953552
			],
			"min":[
				-0.9510578513145447,
				-1,
				-0.9999999403953552
			],
			"type":"VEC3"
		},
		{
			"bufferView":9,
			"componentType":5126,
			"count":240,
			"type":"VEC3"
		},
		{
			"bufferView":10,
			"componentType":5126,
			"count":240,
			"type":"VEC2"
		},
		{
			"bufferView":11,
			"componentType":5123,
			"count":240,
			"type":"SCALAR"
		},
		{
			"bufferView":12,
			"componentType":5126,
			"count":1332,
			"max":[
				2.6580002307891846,
				0,
				0.009000000543892384
			],
			"min":[
				0,
				-0.10000000149011612,
				-0.6860000491142273
			],
			"type":"VEC3"
		},
		{
			"bufferView":13,
			"componentType":5126,
			"count":1332,
			"type":"VEC3"
		},
		{
			"bufferView":14,
			"componentType":5126,
			"count":1332,
			"type":"VEC2"
		},
		{
			"bufferView":15,
			"componentType":5123,
			"count":2592,
			"type":"SCALAR"
		},
		{
			"bufferView":16,
			"componentType":5126,
			"count":24,
			"max":[
				1,
				1,
				1
			],
			"min":[
				-1,
				-1,
				-1
			],
			"type":"VEC3"
		},
		{
			"bufferView":17,
			"componentType":5126,
			"count":24,
			"type":"VEC3"
		},
		{
			"bufferView":18,
			"componentType":5126,
			"count":24,
			"type":"VEC2"
		},
		{
			"bufferView":19,
			"componentType":5123,
			"count":36,
			"type":"SCALAR"
		},
		{
			"bufferView":20,
			"componentType":5126,
			"count":24,
			"max":[
				1,
				1,
				1
			],
			"min":[
				-1,
				-1,
				-1
			],
			"type":"VEC3"
		},
		{
			"bufferView":21,
			"componentType":5126,
			"count":24,
			"type":"VEC3"
		},
		{
			"bufferView":22,
			"componentType":5126,
			"count":24,
			"type":"VEC2"
		},
		{
			"bufferView":23,
			"componentType":5126,
			"count":559,
			"max":[
				0.9999997019767761,
				1,
				0.9999993443489075
			],
			"min":[
				-0.9999990463256836,
				-1,
				-1
			],
			"type":"VEC3"
		},
		{
			"bufferView":24,
			"componentType":5126,
			"count":559,
			"type":"VEC3"
		},
		{
			"bufferView":25,
			"componentType":5126,
			"count":559,
			"type":"VEC2"
		},
		{
			"bufferView":26,
			"componentType":5123,
			"count":2880,
			"type":"SCALAR"
		},
		{
			"bufferView":27,
			"componentType":5126,
			"count":290,
			"max":[
				1.0315909385681152,
				0.03903680294752121,
				1.041916847229004
			],
			"min":[
				-1.0253076553344727,
				-0.045618750154972076,
				-1.0433237552642822
			],
			"type":"VEC3"
		},
		{
			"bufferView":28,
			"componentType":5126,
			"count":290,
			"type":"VEC3"
		},
		{
			"bufferView":29,
			"componentType":5126,
			"count":290,
			"type":"VEC2"
		},
		{
			"bufferView":30,
			"componentType":5123,
			"count":1536,
			"type":"SCALAR"
		},
		{
			"bufferView":31,
			"componentType":5126,
			"count":1572864,
			"max":[
				0.9997411966323853,
				0.9997411966323853,
				0.9997411966323853
			],
			"min":[
				-0.9997411966323853,
				-0.9997411966323853,
				-0.9997411966323853
			],
			"type":"VEC3"
		},
		{
			"bufferView":32,
			"componentType":5126,
			"count":1572864,
			"type":"VEC3"
		},
		{
			"bufferView":33,
			"componentType":5126,
			"count":1572864,
			"type":"VEC2"
		},
		{
			"bufferView":34,
			"componentType":5125,
			"count":2359296,
			"type":"SCALAR"
		}
	],
	"bufferViews":[
		{
			"buffer":0,
			"byteLength":48,
			"byteOffset":0,
			"target":34962
		},
		{
			"buffer":0,
			"byteLength":48,
			"byteOffset":48,
			"target":34962
		},
		{
			"buffer":0,
			"byteLength":32,
			"byteOffset":96,
			"target":34962
		},
		{
			"buffer":0,
			"byteLength":12,
			"byteOffset":128,
			"target":34963
		},
		{
			"buffer":0,
			"byteLength":16200,
			"byteOffset":140,
			"target":34962
		},
		{
			"buffer":0,
			"byteLength":16200,
			"byteOffset":16340,
			"target":34962
		},
		{
			"buffer":0,
			"byteLength":10800,
			"byteOffset":32540,
			"target":34962
		},
		{
			"buffer":0,
			"byteLength":5256,
			"byteOffset":43340,
			"target":34963
		},
		{
			"buffer":0,
			"byteLength":2880,
			"byteOffset":48596,
			"target":34962
		},
		{
			"buffer":0,
			"byteLength":2880,
			"byteOffset":51476,
			"target":34962
		},
		{
			"buffer":0,
			"byteLength":1920,
			"byteOffset":54356,
			"target":34962
		},
		{
			"buffer":0,
			"byteLength":480,
			"byteOffset":56276,
			"target":34963
		},
		{
			"buffer":0,
			"byteLength":15984,
			"byteOffset":56756,
			"target":34962
		},
		{
			"buffer":0,
			"byteLength":15984,
			"byteOffset":72740,
			"target":34962
		},
		{
			"buffer":0,
			"byteLength":10656,
			"byteOffset":88724,
			"target":34962
		},
		{
			"buffer":0,
			"byteLength":5184,
			"byteOffset":99380,
			"target":34963
		},
		{
			"buffer":0,
			"byteLength":288,
			"byteOffset":104564,
			"target":34962
		},
		{
			"buffer":0,
			"byteLength":288,
			"byteOffset":104852,
			"target":34962
		},
		{
			"buffer":0,
			"byteLength":192,
			"byteOffset":105140,
			"target":34962
		},
		{
			"buffer":0,
			"byteLength":72,
			"byteOffset":105332,
			"target":34963
		},
		{
			"buffer":0,
			"byteLength":288,
			"byteOffset":105404,
			"target":34962
		},
		{
			"buffer":0,
			"byteLength":288,
			"byteOffset":105692,
			"target":34962
		},
		{
			"buffer":0,
			"byteLength":192,
			"byteOffset":105980,
			"target":34962
		},
		{
			"buffer":0,
			"byteLength":6708,
			"byteOffset":106172,
			"target":34962
		},
		{
			"buffer":0,
			"byteLength":6708,
			"byteOffset":112880,
			"target":34962
		},
		{
			"buffer":0,
			"byteLength":4472,
			"byteOffset":119588,
			"target":34962
		},
		{
			"buffer":0,
			"byteLength":5760,
			"byteOffset":124060,
			"target":34963
		},
		{
			"buffer":0,
			"byteLength":3480,
			"byteOffset":129820,
			"target":34962
		},
		{
			"buffer":0,
			"byteLength":3480,
			"byteOffset":133300,
			"target":34962
		},
		{
			"buffer":0,
			"byteLength":2320,
			"byteOffset":136780,
			"target":34962
		},
		{
			"buffer":0,
			"byteLength":3072,
			"byteOffset":139100,
			"target":34963
		},
		{
			"buffer":0,
			"byteLength":18874368,
			"byteOffset":142172,
			"target":34962
		},
		{
			"buffer":0,
			"byteLength":18874368,
			"byteOffset":19016540,
			"target":34962
		},
		{
			"buffer":0,
			"byteLength":12582912,
			"byteOffset":37890908,
			"target":34962
		},
		{
			"buffer":0,
			"byteLength":9437184,
			"byteOffset":50473820,
			"target":34963
		}
	],
	"samplers":[
		{
			"magFilter":9729,
			"minFilter":9987
		}
	],
	"buffers":[
		{
			"byteLength":59911004,
			"uri":"TestScene.bin"
		}
	]
}
